<?xml version="1.0" standalone="no"?>
<!DOCTYPE svg PUBLIC "-//W3C//DTD SVG 20010904//EN"
 "http://www.w3.org/TR/2001/REC-SVG-20010904/DTD/svg10.dtd">
<svg version="1.0" xmlns="http://www.w3.org/2000/svg"
 width="300.000000pt" height="69.000000pt" viewBox="0 0 300.000000 69.000000"
 preserveAspectRatio="xMidYMid meet">
<metadata>
Created by potrace 1.10, written by Peter Selinger 2001-2011
</metadata>
<g transform="translate(0.000000,69.000000) scale(0.100000,-0.100000)"
fill="#279b37" stroke="#279b37">
<path d="M2462 618 c-19 -19 -15 -66 7 -78 32 -17 60 -11 77 15 15 23 15 27 0
50 -18 27 -63 34 -84 13z"/>
<path d="M2616 594 c-13 -13 -16 -43 -16 -172 0 -138 2 -161 21 -199 42 -86
167 -125 248 -78 43 26 56 46 47 78 -9 36 -37 42 -83 17 -51 -27 -69 -25 -104
9 -26 27 -29 36 -29 95 l0 66 73 0 c78 0 97 9 97 47 0 37 -41 56 -110 51 l-60
-4 0 37 c0 56 -50 88 -84 53z m54 -64 c0 -30 48 -60 94 -60 51 0 78 -14 44
-23 -12 -4 -41 -7 -62 -7 -61 0 -76 -20 -76 -103 0 -68 1 -70 40 -109 42 -42
60 -45 138 -22 32 9 29 -20 -3 -34 -68 -31 -151 -5 -189 60 -25 42 -26 52 -26
180 0 74 3 137 6 141 11 11 34 -5 34 -23z"/>
<path d="M116 548 c-4 -13 -10 -66 -13 -118 -6 -105 3 -137 55 -193 31 -32 42
-34 42 -7 0 12 6 33 14 48 13 25 11 33 -24 106 -22 46 -40 73 -43 65 -3 -8 -6
-2 -6 13 -2 49 7 58 42 46 45 -16 107 -56 114 -74 5 -15 -22 -43 -42 -43 -5 0
-23 19 -39 42 -16 23 -31 37 -33 30 -4 -11 54 -123 63 -123 3 0 17 11 31 25
15 13 40 29 55 36 15 6 28 15 28 19 0 19 -84 81 -154 114 -41 20 -77 36 -80
36 -2 0 -7 -10 -10 -22z m53 -184 c17 -48 20 -69 12 -77 -8 -8 -11 -8 -11 2 0
7 -4 10 -9 7 -12 -8 -20 15 -27 80 -4 30 -3 54 2 54 5 0 20 -30 33 -66z"/>
<path d="M610 521 c0 -11 13 -35 29 -53 l28 -32 126 3 c132 2 193 -8 237 -39
24 -17 26 -23 22 -82 -3 -55 0 -68 24 -105 46 -70 133 -105 212 -84 46 13 72
42 65 72 -8 29 -45 44 -71 30 -11 -6 -33 -11 -49 -11 -28 0 -73 24 -73 39 0 4
50 7 110 5 92 -2 114 1 131 15 48 38 -9 164 -87 197 -44 18 -128 18 -164 -1
-15 -8 -42 -31 -59 -52 -27 -32 -31 -34 -36 -17 -13 44 -42 89 -68 108 -26 19
-45 21 -203 24 -170 4 -174 3 -174 -17z m341 -36 c40 -17 41 -17 -120 -16
-127 0 -165 6 -156 22 10 15 238 11 276 -6z m353 -46 c35 -16 49 -31 70 -72
31 -64 18 -74 -89 -67 l-30 2 30 10 c28 10 54 34 55 50 0 3 -14 20 -31 37 -40
41 -94 43 -138 5 -53 -44 -35 -82 42 -95 l42 -6 -35 -2 c-39 -1 -80 -25 -80
-46 0 -7 14 -25 32 -40 28 -23 39 -27 80 -23 49 5 72 -7 47 -23 -19 -12 -90
-11 -127 2 -50 17 -87 75 -87 135 0 65 18 99 70 130 49 29 92 30 149 3z m-10
-60 c14 -11 26 -23 26 -27 0 -4 -36 -7 -80 -7 -86 0 -103 12 -52 39 38 21 75
19 106 -5z"/>
<path d="M1945 488 c-51 -11 -95 -41 -125 -87 -22 -31 -25 -50 -28 -139 -4
-113 3 -132 47 -132 44 0 51 16 51 111 0 79 2 90 25 117 17 21 38 33 66 37 45
8 67 41 49 74 -12 24 -36 29 -85 19z m45 -38 c0 -6 -10 -14 -23 -19 -30 -11
-84 -58 -98 -82 -5 -11 -12 -54 -16 -97 -6 -84 -9 -94 -24 -72 -17 26 -3 167
21 204 28 47 140 99 140 66z"/>
<path d="M2069 479 c-19 -19 -20 -30 -17 -129 3 -104 4 -110 34 -147 44 -54
88 -77 149 -77 62 0 106 24 142 79 23 35 27 52 31 141 5 107 -3 138 -37 147
-11 2 -29 -2 -40 -10 -19 -12 -21 -25 -21 -103 0 -99 -10 -132 -47 -149 -37
-17 -52 -14 -84 18 -28 28 -29 33 -29 125 0 87 -2 96 -22 110 -29 21 -34 20
-59 -5z m45 -45 c3 -9 6 -48 6 -88 0 -81 16 -113 70 -141 43 -22 71 -18 110
17 34 31 35 35 40 122 6 113 27 130 32 25 5 -113 -21 -174 -85 -198 -89 -34
-172 11 -196 106 -18 71 -13 173 9 173 4 0 11 -7 14 -16z"/>
<path d="M1531 472 c-89 -45 -125 -156 -81 -246 50 -105 204 -135 293 -58 20
17 23 62 5 80 -17 17 -58 15 -80 -5 -11 -9 -35 -17 -55 -17 -72 0 -109 89 -58
139 30 31 76 32 122 4 28 -17 39 -19 58 -11 13 6 26 20 30 31 23 74 -139 132
-234 83z m154 -26 c24 -10 35 -22 35 -36 0 -19 -1 -20 -36 -5 -53 22 -106 19
-136 -7 -71 -63 -61 -150 22 -193 36 -19 58 -19 94 0 36 19 56 19 56 0 0 -21
-52 -45 -98 -45 -80 0 -133 39 -162 120 -11 32 -10 41 13 87 41 81 129 113
212 79z"/>
<path d="M2460 470 c-6 -12 -9 -78 -8 -172 l3 -152 27 -15 c24 -14 28 -14 47
3 20 18 21 30 21 176 0 108 -4 160 -12 168 -19 19 -66 15 -78 -8z m58 -155 c0
-60 -3 -121 -8 -135 l-7 -25 -10 25 c-13 32 -13 239 0 265 10 19 10 19 18 0 4
-11 7 -69 7 -130z"/>
<path d="M455 431 c-118 -42 -187 -92 -216 -156 -25 -54 -24 -95 4 -135 26
-40 47 -49 47 -22 0 32 57 134 106 190 25 29 44 55 41 58 -11 11 -98 -80 -135
-139 -36 -59 -36 -59 -45 -32 -19 56 36 129 128 169 22 10 48 22 57 27 36 19
48 11 50 -33 4 -82 -3 -143 -19 -181 -26 -60 -113 -101 -113 -52 0 8 23 58 50
111 28 53 49 101 47 108 -6 17 -103 -137 -122 -194 -20 -60 -16 -76 21 -83 36
-6 71 7 107 41 38 36 54 67 62 125 8 51 -3 217 -13 216 -4 0 -30 -8 -57 -18z"/>
<path d="M770 400 c6 -12 11 -62 10 -113 -1 -51 -1 -102 -1 -115 1 -29 53 -82
80 -82 20 0 21 5 21 153 0 106 4 157 12 165 9 9 -4 12 -60 12 -70 0 -72 -1
-62 -20z m78 -125 c3 -122 -2 -152 -21 -120 -15 26 -26 224 -12 229 25 11 30
-7 33 -109z"/>
</g>
</svg>
