<?xml version="1.0" standalone="no"?>
<!DOCTYPE svg PUBLIC "-//W3C//DTD SVG 20010904//EN"
 "http://www.w3.org/TR/2001/REC-SVG-20010904/DTD/svg10.dtd">
<svg version="1.0" xmlns="http://www.w3.org/2000/svg"
 width="430.000000pt" height="275.000000pt" viewBox="0 0 430.000000 275.000000"
 preserveAspectRatio="xMidYMid meet">

<g transform="translate(0.000000,275.000000) scale(0.100000,-0.100000)"
fill="#000000" stroke="none">
<path d="M223 2731 c-94 -32 -143 -76 -194 -171 l-24 -45 0 -1135 0 -1135 26
-56 c32 -68 82 -120 152 -157 l52 -27 1910 0 1910 0 56 26 c68 32 120 82 157
152 l27 52 0 1135 0 1135 -26 56 c-32 68 -82 120 -152 157 l-52 27 -1895 2
c-1804 2 -1898 2 -1947 -16z m3863 -167 c68 -50 69 -52 72 -310 l3 -234 -2010
0 -2011 0 0 219 c0 228 4 257 43 300 49 53 -62 50 1979 48 l1897 -2 27 -21z
m72 -1503 c-3 -800 -3 -810 -24 -837 -11 -15 -33 -37 -48 -48 l-27 -21 -1909
0 -1909 0 -27 21 c-15 11 -37 33 -48 48 -21 27 -21 37 -24 837 l-2 809 2010 0
2010 0 -2 -809z"/>
<path d="M3104 2469 c-25 -13 -54 -59 -54 -88 0 -50 50 -101 99 -101 50 0 101
50 101 99 0 72 -80 121 -146 90z"/>
<path d="M3454 2469 c-25 -13 -54 -59 -54 -88 0 -50 50 -101 99 -101 50 0 101
50 101 99 0 72 -80 121 -146 90z"/>
<path d="M3804 2469 c-25 -13 -54 -59 -54 -88 0 -50 50 -101 99 -101 50 0 101
50 101 99 0 72 -80 121 -146 90z"/>
<path d="M345 2435 c-14 -13 -25 -36 -25 -50 0 -14 11 -37 25 -50 23 -24 28
-25 170 -25 142 0 147 1 170 25 14 13 25 36 25 50 0 14 -11 37 -25 50 -23 24
-28 25 -170 25 -142 0 -147 -1 -170 -25z"/>
<path d="M915 2435 c-14 -13 -25 -36 -25 -50 0 -14 11 -37 25 -50 23 -24 28
-25 170 -25 142 0 147 1 170 25 14 13 25 36 25 50 0 14 -11 37 -25 50 -23 24
-28 25 -170 25 -142 0 -147 -1 -170 -25z"/>
<path d="M1995 1569 c-142 -20 -307 -88 -442 -181 -117 -81 -282 -265 -300
-335 -15 -61 173 -276 333 -380 376 -246 856 -222 1210 58 111 88 254 262 254
308 0 31 -60 119 -135 199 -246 262 -576 380 -920 331z m352 -130 c152 -34
297 -116 416 -234 68 -67 127 -144 127 -165 0 -36 -157 -203 -251 -267 -71
-49 -182 -101 -266 -125 -113 -33 -333 -33 -446 0 -84 24 -194 76 -267 125
-91 62 -250 231 -250 267 0 21 63 103 129 168 223 217 510 299 808 231z"/>
<path d="M2050 1340 c-76 -16 -185 -76 -229 -126 -76 -87 -90 -183 -40 -282
107 -214 459 -265 665 -97 53 44 104 141 104 200 0 124 -93 236 -238 286 -66
23 -197 32 -262 19z m237 -139 c219 -112 93 -372 -169 -348 -107 10 -202 79
-214 158 l-6 34 59 1 c103 1 193 71 193 152 l0 35 49 -6 c27 -3 67 -15 88 -26z"/>
</g>
</svg>
