<svg width="2237" height="1553" viewBox="0 0 2237 1553" fill="none" xmlns="http://www.w3.org/2000/svg">
<rect width="2237" height="1553" rx="90" fill="#309CD9"/>
<path d="M633.575 674.778H1009.04C1059.3 674.778 1100.06 634.978 1100.06 574.778V441.444H633.575V674.778ZM1009.04 97H633.575V330.333H1100.06V185.889C1100.06 162.314 1090.47 139.705 1073.4 123.035C1056.33 106.365 1033.18 97 1009.04 97ZM519.8 97H371.891C347.763 97 324.622 106.356 307.554 123.011C290.486 139.667 280.889 162.259 280.871 185.822V330.333H519.8V97ZM280.871 441.444V574.867C280.916 635.022 321.648 674.778 371.891 674.778H519.8V441.444H280.871Z" fill="#006AA7"/>
<path d="M633.575 97H519.8V330.333H280.871V441.444H519.8V674.778H633.575V441.444H1100.06V330.333H633.575V97Z" fill="#FECC00"/>
<path d="M1859.96 97H1473.13V341.444H1950.98V185.889C1950.98 162.314 1941.39 139.705 1924.33 123.035C1907.26 106.365 1884.1 97 1859.96 97ZM1473.13 674.778H1859.96C1910.23 674.778 1950.98 634.978 1950.98 574.778V430.333H1473.13V674.778ZM1131.8 430.333V574.778C1131.8 634.978 1172.55 674.778 1222.82 674.778H1382.11V430.333H1131.8ZM1382.11 97H1222.82C1198.68 97 1175.53 106.365 1158.46 123.035C1141.39 139.705 1131.8 162.314 1131.8 185.889V341.444H1382.11V97Z" fill="#C60C30"/>
<path d="M1473.13 97H1382.11V341.444H1131.8V430.333H1382.11V674.778H1473.13V430.333H1950.98V341.444H1473.13V97Z" fill="#EEEEEE"/>
<path d="M508.422 881H371.891C347.751 881 324.6 890.365 307.53 907.035C290.46 923.705 280.871 946.314 280.871 969.889V1103.22H508.422V881ZM1009.04 881H644.953V1103.22H1100.06V969.889C1100.06 946.314 1090.47 923.705 1073.4 907.035C1056.33 890.365 1033.18 881 1009.04 881ZM508.422 1458.78H371.891C347.751 1458.78 324.6 1449.41 307.53 1432.74C290.46 1416.07 280.871 1393.46 280.871 1369.89V1236.56H508.422V1458.78ZM1009.04 1458.78H644.953V1236.56H1100.06V1369.89C1100.06 1393.46 1090.47 1416.07 1073.4 1432.74C1056.33 1449.41 1033.18 1458.78 1009.04 1458.78Z" fill="#EF2B2D"/>
<path d="M610.82 881H543.829L543.26 1136.56H280.871V1203.22H543.124L542.555 1458.78H610.82V1203.22H1100.06V1136.56H610.82V881Z" fill="#002868"/>
<path d="M610.82 1458.78H644.953V1236.56H1100.06V1203.22H610.82V1458.78ZM644.953 881H610.82V1136.56H1100.06V1103.22H644.953V881ZM542.555 881H508.422V1103.22H280.871V1136.56H542.555V881ZM280.871 1203.22V1236.56H508.422V1458.78H542.555V1203.22H280.871Z" fill="#EEEEEE"/>
<mask id="mask0_7_98" style="mask-type:luminance" maskUnits="userSpaceOnUse" x="1131" y="884" width="820" height="578">
<path d="M1892.47 884.175H1190.31C1158 884.175 1131.8 910.043 1131.8 941.953V1404.18C1131.8 1436.09 1158 1461.95 1190.31 1461.95H1892.47C1924.79 1461.95 1950.98 1436.09 1950.98 1404.18V941.953C1950.98 910.043 1924.79 884.175 1892.47 884.175Z" fill="white"/>
</mask>
<g mask="url(#mask0_7_98)">
<path d="M1892.47 891.397H1190.31C1162.04 891.397 1139.11 914.032 1139.11 941.953V1404.18C1139.11 1432.1 1162.04 1454.73 1190.31 1454.73H1892.47C1920.75 1454.73 1943.67 1432.1 1943.67 1404.18V941.953C1943.67 914.032 1920.75 891.397 1892.47 891.397Z" fill="white" stroke="#F5F5F5" stroke-width="14.2857"/>
<mask id="mask1_7_98" style="mask-type:alpha" maskUnits="userSpaceOnUse" x="1131" y="884" width="820" height="578">
<path d="M1892.47 891.397H1190.31C1162.04 891.397 1139.11 914.032 1139.11 941.953V1404.18C1139.11 1432.1 1162.04 1454.73 1190.31 1454.73H1892.47C1920.75 1454.73 1943.67 1432.1 1943.67 1404.18V941.953C1943.67 914.032 1920.75 891.397 1892.47 891.397Z" fill="white" stroke="white" stroke-width="14.2857"/>
</mask>
<g mask="url(#mask1_7_98)">
<path fill-rule="evenodd" clip-rule="evenodd" d="M1092.79 1230.84H1365.85V1500.47H1482.88V1230.84H1990V1115.29H1482.88V845.656H1365.85V1115.29H1092.79V1230.84Z" fill="#0848A6"/>
</g>
</g>
</svg>
